<svg width="139" height="120" viewBox="0 0 139 120" fill="none" xmlns="http://www.w3.org/2000/svg">
<g clip-path="url(#clip0_3151_57326)">
<path d="M34.9275 114.781C34.7747 114.788 34.6235 114.748 34.4943 114.666C34.365 114.584 34.2641 114.464 34.2051 114.322C34.1461 114.181 34.1319 114.025 34.1644 113.875C34.1969 113.725 34.2746 113.589 34.3869 113.485C34.4057 113.41 34.4192 113.356 34.438 113.281C34.2918 112.909 34.038 112.589 33.7092 112.362C33.3803 112.135 32.9914 112.012 32.5922 112.009C32.1931 112.005 31.8019 112.121 31.4688 112.341C31.1357 112.562 30.876 112.877 30.7228 113.246C29.8387 115.32 28.6946 117.467 29.2636 119.752C25.5052 111.768 26.7833 101.837 32.3378 95.0089C33.8731 94.1612 35.1175 92.6551 35.4415 90.9063C34.6816 91.1644 33.7342 90.5449 34.3056 89.7427C34.5532 89.4361 34.8032 89.1319 35.0508 88.8253C32.1645 85.7442 28.7254 90.5865 31.9025 94.745C30.8632 96.051 29.9629 97.4624 29.2164 98.9561C29.3888 97.37 29.1831 95.7656 28.6161 94.2747C28.0415 92.8854 26.9644 91.7152 26.016 90.5141C24.8628 89.0506 22.4894 89.7258 22.3342 91.583C23.3985 91.9336 23.5367 93.4744 22.3193 93.6853C22.6382 97.1404 24.8902 100.316 27.9919 101.831C26.8465 105.052 26.3992 108.481 26.6799 111.889C26.1324 107.906 21.8667 106.939 18.8851 105.356C18.6953 105.234 18.4742 105.17 18.2488 105.172C18.0234 105.174 17.8033 105.242 17.6155 105.367C17.4278 105.492 17.2803 105.669 17.1912 105.876C17.1021 106.084 17.0752 106.313 17.1138 106.535C17.5253 106.703 17.9192 106.911 18.2897 107.157C18.4632 107.274 18.5965 107.442 18.6711 107.638C18.7457 107.834 18.7581 108.048 18.7065 108.251C18.6549 108.454 18.5419 108.637 18.383 108.773C18.224 108.909 18.0269 108.993 17.8186 109.012C19.3215 112.741 23.2072 115.244 27.1979 115.23C27.5815 116.9 28.1371 118.526 28.856 120.081H34.7791C34.8003 120.015 34.8194 119.947 34.8385 119.881C34.2903 119.916 33.7399 119.883 33.1996 119.784C34.6501 118.062 35.7719 117.184 34.9277 114.781L34.9275 114.781Z" fill="#F2F2F2"/>
<path d="M87.7327 114.781C87.8855 114.788 88.0367 114.748 88.1659 114.666C88.2952 114.584 88.3961 114.464 88.4551 114.322C88.5141 114.181 88.5283 114.025 88.4958 113.875C88.4633 113.725 88.3856 113.589 88.2733 113.485C88.2545 113.41 88.241 113.356 88.2222 113.281C88.3684 112.909 88.6222 112.589 88.9511 112.362C89.2799 112.135 89.6688 112.012 90.068 112.009C90.4672 112.005 90.8583 112.121 91.1914 112.341C91.5245 112.562 91.7843 112.877 91.9374 113.246C92.8215 115.32 93.9656 117.467 93.3966 119.752C97.155 111.768 95.8769 101.837 90.3224 95.0089C88.7871 94.1612 87.5427 92.6551 87.2188 90.9063C87.9786 91.1644 88.926 90.5449 88.3547 89.7427C88.107 89.4361 87.857 89.1319 87.6094 88.8253C90.4958 85.7442 93.9348 90.5865 90.7578 94.745C91.7971 96.051 92.6973 97.4624 93.4438 98.9561C93.2714 97.37 93.4771 95.7656 94.0441 94.2747C94.6187 92.8854 95.6958 91.7152 96.6442 90.5141C97.7974 89.0506 100.171 89.7258 100.326 91.583C99.2618 91.9336 99.1235 93.4744 100.341 93.6853C100.022 97.1404 97.77 100.316 94.6683 101.831C95.8137 105.052 96.261 108.481 95.9803 111.889C96.5278 107.906 100.794 106.939 103.775 105.356C103.965 105.234 104.186 105.17 104.411 105.172C104.637 105.174 104.857 105.242 105.045 105.367C105.232 105.492 105.38 105.669 105.469 105.876C105.558 106.084 105.585 106.313 105.546 106.535C105.135 106.703 104.741 106.911 104.371 107.157C104.197 107.274 104.064 107.442 103.989 107.638C103.914 107.834 103.902 108.048 103.954 108.251C104.005 108.454 104.118 108.637 104.277 108.773C104.436 108.909 104.633 108.993 104.842 109.012C103.339 112.741 99.453 115.244 95.4623 115.23C95.0788 116.9 94.5231 118.526 93.8042 120.081H87.8811C87.8599 120.015 87.8408 119.947 87.8217 119.881C88.3699 119.916 88.9203 119.883 89.4606 119.784C88.0101 118.062 86.8883 117.184 87.7325 114.781L87.7327 114.781Z" fill="#F2F2F2"/>
<path d="M89.929 115.662L87.3783 116.244L83.9258 106.659L87.6906 105.801L89.929 115.662Z" fill="#FFB6B6"/>
<path d="M90.6254 118.309L82.7813 120.098L82.7587 119.998C82.5745 119.187 82.7195 118.335 83.1617 117.631C83.604 116.926 84.3073 116.427 85.117 116.242L85.1172 116.242L86.3027 114.825L89.2234 115.305L89.9081 115.149L90.6254 118.309Z" fill="#2F2E41"/>
<path d="M131.079 68.943L132.481 71.1564L124.63 77.6315L122.561 74.3646L131.079 68.943Z" fill="#FFB6B6"/>
<path d="M133.332 67.3986L137.644 74.2051L137.558 74.2598C136.857 74.706 136.008 74.8548 135.198 74.6735C134.387 74.4922 133.682 73.9956 133.237 73.2931L133.237 73.2929L131.508 72.6487L130.979 69.7299L130.603 69.1357L133.332 67.3986Z" fill="#2F2E41"/>
<path d="M49.7677 45.2787L49.1377 41.6186L58.7159 37.2835L60.7844 33.6128C60.7176 33.2907 60.741 32.9563 60.8518 32.6467C60.9627 32.337 61.1568 32.0641 61.4128 31.8581C61.6687 31.6521 61.9764 31.521 62.302 31.4793C62.6276 31.4375 62.9584 31.4868 63.2577 31.6217C63.5571 31.7566 63.8135 31.9717 63.9985 32.2435C64.1836 32.5152 64.2901 32.8329 64.3063 33.1615C64.3225 33.4901 64.2477 33.8168 64.0903 34.1055C63.9329 34.3942 63.699 34.6336 63.4143 34.7974L60.0116 40.0703L49.7677 45.2787Z" fill="#A0616A"/>
<path d="M46.8564 42.2866L51.1698 40.0782L52.3116 44.3754L49.3156 46.6014L46.8564 42.2866Z" fill="#8CC63F"/>
<path d="M37.1774 115.33L39.7853 115.329L41.026 105.247L37.1768 105.247L37.1774 115.33Z" fill="#A0616A"/>
<path d="M40.6526 115.565V113.793L39.967 113.835L37.176 114L36.53 114.04L36.0362 119.975L36.0098 120.294H37.8616L37.9211 119.978L38.1901 118.541L38.8845 119.978L39.0367 120.294H43.9463C44.2384 120.292 44.5181 120.174 44.7244 119.967C44.9308 119.76 45.0473 119.479 45.0486 119.186C45.2558 118.216 41.1729 116.119 40.6526 115.565Z" fill="#2F2E41"/>
<path d="M6.21832 75.3152L5.61035 77.8573L15.1035 81.4175L16.0007 77.6657L6.21832 75.3152Z" fill="#A0616A"/>
<path d="M5.38664 78.6482L7.10599 79.0614L7.22512 78.3833L7.71508 75.6244L7.8271 74.9855L2.18394 73.1204L1.88139 73.0204L1.44961 74.8253L1.7423 74.957L3.07308 75.5541L1.51767 75.896L1.17564 75.9706L0.0309168 80.7559C-0.0354037 81.0411 0.013196 81.341 0.166172 81.5905C0.319148 81.8399 0.564143 82.0189 0.847955 82.0884C1.74078 82.5165 4.72723 79.026 5.38664 78.6482Z" fill="#2F2E41"/>
<path d="M41.2095 50.0744L37.8526 48.5016L31.1581 56.6217L27.0805 57.6553C26.788 57.5059 26.4601 57.4405 26.1328 57.4662C25.8056 57.4918 25.4918 57.6077 25.2261 57.8009C24.9605 57.9941 24.7532 58.2572 24.6274 58.561C24.5015 58.8648 24.4618 59.1976 24.5128 59.5226C24.5638 59.8476 24.7034 60.1522 24.9162 60.4027C25.1291 60.6531 25.4068 60.8397 25.7188 60.9419C26.0308 61.0441 26.3649 61.0579 26.6842 60.9817C27.0036 60.9055 27.2957 60.7423 27.5283 60.5102L33.4993 58.6083L41.2095 50.0744Z" fill="#A0616A"/>
<path d="M88.8019 20.015C88.0903 20.015 87.3947 19.8035 86.8031 19.4072C86.2114 19.011 85.7503 18.4478 85.478 17.7889C85.2057 17.13 85.1344 16.4049 85.2732 15.7054C85.4121 15.0059 85.7547 14.3634 86.2579 13.859C86.761 13.3547 87.4021 13.0113 88.1 12.8721C88.7979 12.733 89.5213 12.8044 90.1787 13.0774C90.8361 13.3503 91.398 13.8125 91.7933 14.4055C92.1886 14.9985 92.3996 15.6957 92.3996 16.4089C92.3986 17.365 92.0192 18.2816 91.3447 18.9576C90.6702 19.6336 89.7557 20.0139 88.8019 20.015ZM88.8019 13.2167C88.172 13.2167 87.5562 13.4039 87.0324 13.7547C86.5087 14.1054 86.1005 14.604 85.8594 15.1873C85.6184 15.7706 85.5553 16.4125 85.6782 17.0317C85.8011 17.6509 86.1044 18.2197 86.5498 18.6662C86.9952 19.1126 87.5627 19.4166 88.1805 19.5398C88.7983 19.663 89.4387 19.5997 90.0207 19.3581C90.6026 19.1165 91.1001 18.7074 91.45 18.1824C91.8 17.6575 91.9868 17.0403 91.9868 16.4089C91.9858 15.5626 91.6499 14.7512 91.0529 14.1527C90.4558 13.5543 89.6463 13.2177 88.8019 13.2167Z" fill="#E6E6E6"/>
<path d="M88.5478 17.7674C88.5406 17.7674 88.5334 17.7672 88.5261 17.7668C88.4623 17.7637 88.3998 17.7468 88.3431 17.7173C88.2863 17.6877 88.2366 17.6462 88.1974 17.5956L87.6306 16.8653C87.5949 16.8192 87.5685 16.7665 87.553 16.7102C87.5376 16.6539 87.5333 16.595 87.5405 16.5371C87.5477 16.4791 87.5663 16.4231 87.5951 16.3724C87.6239 16.3216 87.6624 16.277 87.7084 16.2412L87.7288 16.2252C87.7748 16.1893 87.8274 16.1629 87.8836 16.1474C87.9398 16.1319 87.9985 16.1276 88.0563 16.1349C88.1142 16.1421 88.17 16.1607 88.2207 16.1896C88.2714 16.2185 88.3159 16.2571 88.3516 16.3033C88.3803 16.3401 88.4165 16.3703 88.4578 16.3918C88.4992 16.4133 88.5447 16.4256 88.5912 16.4279C88.6377 16.4302 88.6842 16.4224 88.7275 16.405C88.7707 16.3876 88.8097 16.3611 88.8417 16.3272L89.9924 15.1095C90.0735 15.024 90.185 14.9742 90.3026 14.971C90.4202 14.9678 90.5343 15.0115 90.6198 15.0924L90.6387 15.1105C90.681 15.1506 90.715 15.1988 90.7387 15.2521C90.7625 15.3054 90.7755 15.3629 90.7771 15.4213C90.7787 15.4797 90.7687 15.5378 90.7479 15.5924C90.7271 15.6469 90.6957 15.6968 90.6556 15.7392L88.8698 17.6285C88.8284 17.6724 88.7785 17.7073 88.7231 17.7312C88.6678 17.7551 88.6081 17.7674 88.5478 17.7674Z" fill="#E6E6E6"/>
<path d="M70.8419 63.6738C70.1303 63.6738 69.4347 63.4623 68.8431 63.066C68.2514 62.6698 67.7903 62.1066 67.518 61.4477C67.2457 60.7888 67.1745 60.0637 67.3133 59.3642C67.4521 58.6647 67.7947 58.0222 68.2979 57.5179C68.8011 57.0135 69.4421 56.6701 70.14 56.531C70.8379 56.3918 71.5613 56.4632 72.2187 56.7362C72.8761 57.0091 73.438 57.4713 73.8334 58.0643C74.2287 58.6573 74.4397 59.3545 74.4397 60.0677C74.4386 61.0238 74.0592 61.9404 73.3847 62.6164C72.7103 63.2924 71.7958 63.6727 70.8419 63.6738ZM70.8419 56.8755C70.212 56.8755 69.5962 57.0627 69.0725 57.4135C68.5487 57.7643 68.1405 58.2628 67.8995 58.8461C67.6584 59.4294 67.5953 60.0713 67.7182 60.6905C67.8411 61.3097 68.1444 61.8785 68.5898 62.325C69.0353 62.7714 69.6028 63.0754 70.2206 63.1986C70.8384 63.3218 71.4788 63.2586 72.0607 63.017C72.6427 62.7753 73.1401 62.3662 73.49 61.8412C73.84 61.3163 74.0268 60.6991 74.0268 60.0677C74.0258 59.2214 73.69 58.41 73.0929 57.8115C72.4958 57.2131 71.6863 56.8765 70.8419 56.8755Z" fill="#E6E6E6"/>
<path d="M70.5879 61.4263C70.5807 61.4263 70.5734 61.4261 70.5662 61.4257C70.5023 61.4226 70.4399 61.4057 70.3831 61.3762C70.3264 61.3466 70.2767 61.3051 70.2374 61.2545L69.6707 60.5242C69.6349 60.4781 69.6085 60.4254 69.5931 60.3691C69.5776 60.3128 69.5733 60.254 69.5806 60.196C69.5878 60.1381 69.6063 60.0821 69.6351 60.0313C69.6639 59.9805 69.7024 59.9359 69.7485 59.9001L69.7688 59.8842C69.8148 59.8483 69.8674 59.8218 69.9236 59.8063C69.9798 59.7908 70.0385 59.7866 70.0964 59.7938C70.1542 59.8011 70.2101 59.8197 70.2607 59.8485C70.3114 59.8774 70.3559 59.9161 70.3917 59.9622C70.4203 59.999 70.4565 60.0292 70.4979 60.0508C70.5392 60.0723 70.5847 60.0846 70.6312 60.0869C70.6778 60.0891 70.7243 60.0813 70.7675 60.0639C70.8107 60.0465 70.8497 60.02 70.8818 59.9861L72.0325 58.7685C72.1135 58.683 72.225 58.6331 72.3426 58.6299C72.4602 58.6267 72.5743 58.6704 72.6598 58.7514L72.6787 58.7694C72.721 58.8096 72.755 58.8577 72.7788 58.911C72.8025 58.9644 72.8156 59.0219 72.8171 59.0803C72.8187 59.1386 72.8088 59.1968 72.7879 59.2513C72.7671 59.3059 72.7357 59.3558 72.6956 59.3981L70.9099 61.2874C70.8684 61.3313 70.8185 61.3662 70.7632 61.3901C70.7078 61.414 70.6482 61.4263 70.5879 61.4263Z" fill="#E6E6E6"/>
<path d="M31.4122 15.049C30.7007 15.049 30.0051 14.8375 29.4134 14.4413C28.8218 14.0451 28.3606 13.4819 28.0883 12.8229C27.816 12.164 27.7448 11.439 27.8836 10.7395C28.0224 10.04 28.3651 9.39742 28.8682 8.8931C29.3714 8.38879 30.0124 8.04534 30.7103 7.9062C31.4082 7.76706 32.1316 7.83848 32.789 8.11141C33.4464 8.38434 34.0083 8.84654 34.4037 9.43955C34.799 10.0326 35.01 10.7298 35.01 11.443C35.0089 12.399 34.6295 13.3156 33.9551 13.9917C33.2806 14.6677 32.3661 15.048 31.4122 15.049ZM31.4122 8.25075C30.7823 8.25075 30.1666 8.43797 29.6428 8.78874C29.119 9.1395 28.7108 9.63806 28.4698 10.2214C28.2287 10.8047 28.1656 11.4465 28.2885 12.0657C28.4114 12.685 28.7148 13.2538 29.1602 13.7002C29.6056 14.1467 30.1731 14.4507 30.7909 14.5739C31.4087 14.697 32.0491 14.6338 32.631 14.3922C33.213 14.1506 33.7104 13.7414 34.0604 13.2165C34.4103 12.6915 34.5971 12.0743 34.5971 11.443C34.5962 10.5966 34.2603 9.78524 33.6632 9.18679C33.0662 8.58834 32.2566 8.25171 31.4122 8.25075Z" fill="#E6E6E6"/>
<path d="M31.1572 12.8014C31.15 12.8014 31.1428 12.8012 31.1355 12.8009C31.0716 12.7978 31.0092 12.7809 30.9525 12.7513C30.8957 12.7218 30.846 12.6803 30.8068 12.6297L30.24 11.8993C30.2042 11.8532 30.1778 11.8005 30.1624 11.7442C30.1469 11.6879 30.1427 11.6291 30.1499 11.5711C30.1571 11.5132 30.1757 11.4572 30.2045 11.4064C30.2333 11.3557 30.2718 11.3111 30.3178 11.2752L30.3382 11.2593C30.3842 11.2234 30.4368 11.1969 30.493 11.1814C30.5492 11.1659 30.6079 11.1617 30.6657 11.1689C30.7236 11.1762 30.7794 11.1948 30.8301 11.2237C30.8808 11.2526 30.9252 11.2912 30.961 11.3373C30.9896 11.3741 31.0259 11.4044 31.0672 11.4259C31.1086 11.4474 31.1541 11.4597 31.2006 11.462C31.2471 11.4642 31.2936 11.4564 31.3368 11.439C31.3801 11.4216 31.419 11.3951 31.4511 11.3612L32.6018 10.1436C32.6828 10.0581 32.7944 10.0083 32.912 10.005C33.0296 10.0018 33.1437 10.0455 33.2292 10.1265L33.2481 10.1445C33.2904 10.1847 33.3244 10.2328 33.3481 10.2861C33.3719 10.3395 33.3849 10.397 33.3865 10.4554C33.388 10.5138 33.3781 10.5719 33.3573 10.6264C33.3364 10.681 33.3051 10.7309 33.265 10.7733L31.4792 12.6625C31.4378 12.7064 31.3879 12.7414 31.3325 12.7652C31.2771 12.7891 31.2175 12.8015 31.1572 12.8014Z" fill="#E6E6E6"/>
<path d="M60.2146 77.0816C51.8718 77.0816 42.2838 67.8022 33.8009 72.2111C8.11672 85.5599 11.6523 63.2227 4.27344 54.9154L4.51569 54.4283C12.6574 61.7455 22.8226 67.6989 33.9124 71.6446C43.9341 75.2107 54.031 76.863 63.1077 76.4269L63.1235 77.0123C62.1649 77.0587 61.1953 77.0817 60.2146 77.0816Z" fill="#F2F2F2"/>
<path d="M48.7712 14.343C49.7343 14.343 50.5151 13.2937 50.5151 11.9992C50.5151 10.7048 49.7343 9.6554 48.7712 9.6554C47.8081 9.6554 47.0273 10.7048 47.0273 11.9992C47.0273 13.2937 47.8081 14.343 48.7712 14.343Z" fill="#E6E6E6"/>
<path d="M68.9123 50.907C68.1151 51.4394 67.2991 50.1721 68.1117 49.6634C68.9089 49.131 69.7249 50.3982 68.9123 50.907Z" fill="#E6E6E6"/>
<path d="M64.3236 8.24463C65.5777 8.24463 66.5944 7.2256 66.5944 5.96857C66.5944 4.71153 65.5777 3.6925 64.3236 3.6925C63.0694 3.6925 62.0527 4.71153 62.0527 5.96857C62.0527 7.2256 63.0694 8.24463 64.3236 8.24463Z" fill="#FF6584"/>
<path opacity="0.3" d="M72.2666 18.4412L85.1883 -19.3846L70.9995 17.9884C70.9293 18.0771 70.8812 18.1813 70.8593 18.2923C70.8373 18.4034 70.8421 18.5181 70.8732 18.6269C70.9043 18.7357 70.9608 18.8356 71.0381 18.9181C71.1154 19.0007 71.2112 19.0636 71.3176 19.1016C71.424 19.1396 71.5379 19.1516 71.6498 19.1367C71.7618 19.1218 71.8686 19.0803 71.9614 19.0158C72.0542 18.9512 72.1303 18.8654 72.1833 18.7655C72.2364 18.6655 72.265 18.5544 72.2666 18.4412H72.2666Z" fill="#F0F0F0"/>
<path d="M59.224 64.524C60.4442 64.524 61.4334 63.5326 61.4334 62.3096C61.4334 61.0865 60.4442 60.0951 59.224 60.0951C58.0038 60.0951 57.0146 61.0865 57.0146 62.3096C57.0146 63.5326 58.0038 64.524 59.224 64.524Z" fill="#F2F2F2"/>
<path d="M37.8246 63.1543C37.8246 63.1543 32.3167 66.7491 33.7731 69.1378C33.8234 69.2202 27.194 77.9961 27.194 77.9961L14.6792 77.1998L14.2383 81.3981L25.3798 84.6324C25.3798 84.6324 28.1055 86.6395 30.2111 84.4281C32.3167 82.2167 39.3304 75.4448 39.3304 75.4448L39.6687 89.117L36.1478 108.063L41.4048 107.729L46.5215 88.7214L48.4102 67.191L37.8246 63.1543Z" fill="#2F2E41"/>
<path d="M41.7487 41.5796L39.4325 43.3389L36.7925 48.9864L39.3311 52.442C39.3311 52.442 41.4665 56.1513 38.0485 59.7435C34.6305 63.3357 32.0059 67.1723 34.7416 67.0353C37.4774 66.8983 48.5576 72.5469 48.6305 67.9192C48.7034 63.2915 48.8509 59.7435 48.8509 59.7435L51.7559 52.3585C51.7559 52.3585 53.4866 47.9529 52.2715 46.6342C51.0564 45.3154 49.4294 43.6303 49.4294 43.6303L46.4707 40.6648H43.7992L41.7487 41.5796Z" fill="#8CC63F"/>
<path d="M46.0721 30.7288C51.2683 33.6924 47.0025 41.5119 41.7095 38.7275C36.5134 35.7639 40.7792 27.9444 46.0721 30.7288Z" fill="#A0616A"/>
<path d="M48.8508 32.3719C48.4867 32.8465 47.726 32.624 46.2364 32.9627C46.2397 32.4566 46.1813 31.952 46.0627 31.46C45.9519 32.0691 45.709 32.6464 45.3512 33.1511C44.0577 33.2949 45.6433 37.2335 44.981 40.1292C44.1277 34.0201 42.3329 35.6206 43.2396 36.8324C43.8201 37.6081 43.4331 39.9353 41.6917 38.7717C38.8185 40.1404 34.7262 33.3416 39.2617 30.153C39.1807 28.4295 41.094 28.1573 42.2722 28.6872C45.1315 26.5522 48.3983 29.2878 48.8508 32.3719Z" fill="#2F2E41"/>
<path d="M35.5184 27.9142C34.3615 35.0433 28.1608 26.6031 25.2453 33.6189C24.3286 36.1596 25.9014 37.9771 26.8963 40.086C27.1233 41.8191 24.8739 42.6985 24.6382 44.2938C24.5727 47.9513 30.4598 47.7275 32.1056 45.4199C33.7967 43.0043 31.7773 39.7634 32.7938 37.1706C34.2224 33.5708 40.0323 33.544 40.5384 29.356C39.5582 27.9569 36.9223 26.3545 35.5184 27.9142Z" fill="#2F2E41"/>
<path d="M40.2041 28.6108C40.1663 28.6268 40.1284 28.6427 40.0946 28.6607H40.0926C40.0607 28.6767 40.0289 28.6926 39.997 28.7106C39.993 28.7126 39.991 28.7146 39.987 28.7166C39.9452 28.6767 39.9034 28.6367 39.8595 28.5968C39.8482 28.6618 39.8509 28.7286 39.8675 28.7925L39.8735 28.8164C39.9133 28.8583 39.9552 28.8983 39.999 28.9402C40.0388 28.9103 40.0767 28.8783 40.1165 28.8484C40.1404 28.8284 40.1643 28.8084 40.1902 28.7885C40.1942 28.7366 40.2002 28.6767 40.2061 28.6108L40.2041 28.6108ZM41.4033 26.3907C40.5149 26.1871 40.228 27.351 40.1424 27.912C39.8197 25.8756 38.4772 26.5165 38.9413 27.906C39.0892 28.3174 39.322 28.6929 39.6245 29.0081C39.6663 29.056 39.7121 29.1039 39.7599 29.1518C39.7062 29.4313 39.9771 29.3595 40.3436 29.1019C40.6142 28.909 40.8645 28.6889 41.0905 28.4451C41.8216 27.6764 42.3912 26.6482 41.4033 26.3907ZM41.4312 27.5367C41.1571 27.8909 40.8496 28.2179 40.5129 28.513C40.4073 28.6088 40.2998 28.7006 40.1902 28.7885C40.1882 28.8064 40.1882 28.8224 40.1862 28.8364C40.1785 28.8558 40.1692 28.8745 40.1583 28.8923C40.0468 29.0939 39.9213 28.9841 39.8735 28.8164C39.8695 28.8104 39.8635 28.8044 39.8595 28.7984C39.7004 28.6336 39.5619 28.4499 39.4472 28.2514C38.6246 26.8219 39.9492 25.8496 39.8834 28.5189C39.8713 28.5434 39.8633 28.5697 39.8595 28.5968C39.8482 28.6618 39.8509 28.7286 39.8675 28.7925L39.8735 28.8164C39.9133 28.8583 39.9552 28.8983 39.999 28.9402C40.0388 28.9103 40.0767 28.8783 40.1165 28.8484C40.1404 28.8284 40.1643 28.8084 40.1902 28.7885C40.1942 28.7366 40.2002 28.6767 40.2061 28.6108V28.6088C40.2579 28.0737 40.3994 27.1114 40.6603 26.8499C41.234 26.4087 41.9769 26.8858 41.4312 27.5367ZM40.2041 28.6108C40.1663 28.6268 40.1284 28.6427 40.0946 28.6607H40.0926C40.0607 28.6767 40.0289 28.6926 39.997 28.7106C39.993 28.7126 39.991 28.7146 39.987 28.7166C39.9452 28.6767 39.9034 28.6367 39.8595 28.5968C39.8482 28.6618 39.8509 28.7286 39.8675 28.7925L39.8735 28.8164C39.9133 28.8583 39.9552 28.8983 39.999 28.9402C40.0388 28.9103 40.0767 28.8783 40.1165 28.8484C40.1404 28.8284 40.1643 28.8084 40.1902 28.7885C40.1942 28.7366 40.2002 28.6767 40.2061 28.6108L40.2041 28.6108Z" fill="#2F2E41"/>
<path d="M88.2312 67.9162L86.3121 72.9326L77.3096 90.7313L85.22 111.437L89.3026 110.357L85.9376 90.7313L95.5915 78.9745L107.056 86.7683C107.056 86.7683 112.141 90.7469 114.075 86.9752C116.01 83.2035 128.526 75.1811 128.526 75.1811L125.429 71.8704L111.016 78.6311L101.068 64.5966L88.2312 67.9162Z" fill="#2F2E41"/>
<path d="M97.9143 44.2547L94.7552 40.8528L89.3362 40.1056L82.6963 44.7646L82.7632 49.9216L86.0455 62.0735C86.0455 62.0735 84.7953 70.8041 88.2875 70.7165C91.7796 70.6289 93.6831 68.8839 95.1054 69.2391C96.5277 69.5944 102.574 71.1062 102.957 69.5226C103.34 67.9391 105.377 69.0729 105.288 67.5749C105.198 66.0768 99.7738 55.2786 99.7738 55.2786L101.122 44.4794L97.9143 44.2547Z" fill="#8CC63F"/>
<path d="M117.917 28.5952C117.945 28.8773 117.912 29.1622 117.818 29.4298C117.725 29.6975 117.574 29.9413 117.376 30.1441C117.179 30.347 116.939 30.5039 116.674 30.6039C116.409 30.7039 116.126 30.7445 115.844 30.7228L108.579 44.5709L106.629 41.5699L114.054 28.5003C114.122 28.0278 114.36 27.5966 114.724 27.2884C115.088 26.9802 115.552 26.8164 116.028 26.8281C116.504 26.8398 116.959 27.0261 117.307 27.3518C117.656 27.6775 117.873 28.1199 117.917 28.5952Z" fill="#FFB6B6"/>
<path d="M95.0466 46.8295C95.0466 46.8295 94.7585 49.2928 97.5252 49.9026C100.292 50.5124 107.957 46.1225 109.214 45.452C109.607 45.242 110.141 44.2129 110.689 42.8982C110.935 42.3079 111.184 41.6602 111.424 41.0031C111.563 40.6229 112.228 40.5191 112.359 40.142C112.489 39.767 112.085 39.1186 112.203 38.7652C112.763 37.0876 113.159 35.7567 113.159 35.7567L111.326 32.3042C108.761 33.6632 107.446 36.6565 106.478 40.1052L95.0466 46.8295Z" fill="#8CC63F"/>
<path d="M62.7346 31.7753C62.7777 32.0556 62.8815 32.3229 63.0388 32.5586C63.1962 32.7942 63.4031 32.9925 63.6451 33.1393C63.8871 33.2861 64.1583 33.3779 64.4396 33.4083C64.7208 33.4387 65.0053 33.407 65.273 33.3153L75.7642 44.9004L76.9032 41.5057L66.4508 30.7146C66.2672 30.2741 65.9289 29.9163 65.4998 29.7092C65.0707 29.502 64.5807 29.4598 64.1226 29.5906C63.6645 29.7213 63.2702 30.0159 63.0144 30.4186C62.7586 30.8213 62.659 31.304 62.7346 31.7753Z" fill="#FFB6B6"/>
<path d="M89.43 43.6928C89.43 43.6928 90.324 46.0054 87.7976 47.2898C85.2711 48.5742 76.7538 46.2466 75.3697 45.9127C74.9364 45.8081 74.1624 44.9456 73.3038 43.8102C72.9183 43.3005 72.5157 42.7357 72.1192 42.1598C71.8897 41.8265 71.2196 41.8929 70.9987 41.5607C70.779 41.2303 71.0084 40.5011 70.8059 40.1885C69.8452 38.7047 69.1289 37.5156 69.1289 37.5156L70.0423 33.713C72.8646 34.3854 74.8855 36.9536 76.6832 40.0498L89.43 43.6928Z" fill="#8CC63F"/>
<path d="M92.1541 39.2402C95.0017 39.2402 97.3101 36.9265 97.3101 34.0723C97.3101 31.2182 95.0017 28.9044 92.1541 28.9044C89.3065 28.9044 86.998 31.2182 86.998 34.0723C86.998 36.9265 89.3065 39.2402 92.1541 39.2402Z" fill="#FFB6B6"/>
<path d="M98.0397 31.1132C97.4974 30.2722 96.4796 29.7117 95.4929 29.8692C95.4011 29.2381 95.1383 28.6443 94.7331 28.1525C94.3279 27.6607 93.7958 27.2898 93.1948 27.0801C92.5939 26.8704 91.947 26.83 91.3247 26.9633C90.7024 27.0966 90.1286 27.3984 89.6656 27.8359C89.5133 27.7285 89.336 27.6623 89.1507 27.6437C88.9654 27.6251 88.7784 27.6548 88.608 27.7299C88.2684 27.8846 87.9729 28.1223 87.7487 28.4211C87.1826 29.1288 86.8184 29.9771 86.6951 30.8757C86.5718 31.7744 86.6939 32.6897 87.0484 33.5243C86.9278 33.0849 87.3671 32.6716 87.811 32.573C88.2549 32.4744 88.7205 32.5676 89.1706 32.5034C89.7475 32.4212 90.2661 32.0857 90.8439 32.0102C91.3339 31.9783 91.8254 32.0416 92.2914 32.1967C92.7573 32.3517 93.2481 32.4178 93.7384 32.3914C94.2247 32.3335 94.8511 34.1808 94.8427 35.4819C94.8411 35.7284 94.8918 36.045 95.1322 36.0973C95.4283 36.1617 95.5998 35.7522 95.8816 35.6406C96.0115 35.6033 96.1507 35.618 96.27 35.6815C96.3893 35.7451 96.4793 35.8526 96.5211 35.9814C96.5566 36.1123 96.5604 36.2499 96.5322 36.3826C96.5039 36.5153 96.4445 36.6393 96.3588 36.7443C96.1856 36.9525 95.9799 37.1313 95.7499 37.2737L95.8659 37.3705C95.9761 37.4872 96.1233 37.5618 96.2823 37.5816C96.4414 37.6014 96.6024 37.5651 96.7377 37.479C97.0037 37.2984 97.2192 37.0525 97.3636 36.7647C97.9074 35.9217 98.2963 34.9879 98.5116 34.0074C98.6933 33.0228 98.5821 31.9542 98.0397 31.1132Z" fill="#2F2E41"/>
<path d="M136.184 51.4958C129.533 56.5445 116.3 54.9495 112.194 63.5976C99.7603 89.7816 89.1233 69.8357 78.237 67.6787L78.1367 67.1439C89.0347 68.0498 100.724 66.6441 111.941 63.0785C122.078 59.8566 131.123 55.0636 138.096 49.2231L138.461 49.6803C137.725 50.2973 136.966 50.9025 136.184 51.4958Z" fill="#F2F2F2"/>
<path d="M108.067 120.075C107.908 120.545 17.4727 120.545 17.3018 120.076C17.46 119.605 107.896 119.605 108.067 120.075Z" fill="#CCCCCC"/>
</g>
<defs>
<clipPath id="clip0_3151_57326">
<rect width="138.462" height="120" fill="white"/>
</clipPath>
</defs>
</svg>
